<svg width="300" height="96" viewBox="0 0 300 96" fill="none" xmlns="http://www.w3.org/2000/svg">
<g filter="url(#filter0_d)">
<path d="M31.9082 41.8613L38.0195 30.9922C39.1953 31.0469 40.3027 31.1289 41.3418 31.2383C42.3809 31.334 43.3037 31.4365 44.1104 31.5459C45.04 31.6689 45.9082 31.7988 46.7148 31.9355V37.1445C46.4414 37.0488 46.0723 36.9463 45.6074 36.8369C45.1562 36.7275 44.6504 36.6182 44.0898 36.5088C43.5293 36.3857 42.9414 36.2695 42.3262 36.1602C41.7109 36.0508 41.1094 35.9414 40.5215 35.832L34.4922 46.5371L40.5215 57.2422C41.1094 57.1465 41.7109 57.0439 42.3262 56.9346C42.9414 56.8115 43.5293 56.6885 44.0898 56.5654C44.6504 56.4424 45.1562 56.3262 45.6074 56.2168C46.0723 56.1074 46.4414 56.0117 46.7148 55.9297V61.1387C45.9082 61.2754 45.04 61.4053 44.1104 61.5283C43.3037 61.6377 42.3809 61.7471 41.3418 61.8564C40.3027 61.9521 39.1953 62.0273 38.0195 62.082L31.9082 51.2129L25.7559 62.082C24.5801 62.0273 23.4658 61.9521 22.4131 61.8564C21.374 61.7471 20.458 61.6377 19.665 61.5283C18.7354 61.4053 17.8809 61.2754 17.1016 61.1387V55.9297C17.3477 56.0117 17.6963 56.1074 18.1475 56.2168C18.5986 56.3262 19.1045 56.4424 19.665 56.5654C20.2256 56.6885 20.8135 56.8115 21.4287 56.9346C22.0576 57.0439 22.666 57.1465 23.2539 57.2422L29.2422 46.5371L23.2539 35.832C22.666 35.9414 22.0576 36.0508 21.4287 36.1602C20.8135 36.2695 20.2256 36.3857 19.665 36.5088C19.1045 36.6182 18.5986 36.7275 18.1475 36.8369C17.6963 36.9463 17.3477 37.0488 17.1016 37.1445V31.9355C17.8809 31.7988 18.7354 31.6689 19.665 31.5459C20.458 31.4365 21.374 31.334 22.4131 31.2383C23.4658 31.1289 24.5801 31.0469 25.7559 30.9922L31.9082 41.8613ZM72.6367 46.9883V52.0742H54.2207V46.9883H72.6367ZM95.4414 30.2129C97.5059 30.2129 99.4609 30.3975 101.307 30.7666C103.152 31.1221 104.759 31.6279 106.126 32.2842C107.507 32.9404 108.601 33.7266 109.407 34.6426C110.214 35.5449 110.617 36.543 110.617 37.6367V41.2461H105.203V39.2363C105.203 38.6484 104.978 38.0879 104.526 37.5547C104.075 37.0078 103.426 36.5361 102.578 36.1396C101.744 35.7295 100.726 35.4082 99.5225 35.1758C98.3193 34.9297 96.959 34.8066 95.4414 34.8066C93.9785 34.8066 92.6455 34.9229 91.4424 35.1553C90.2393 35.374 89.207 35.6816 88.3457 36.0781C87.4844 36.4746 86.8145 36.9463 86.3359 37.4932C85.8711 38.0264 85.6387 38.6074 85.6387 39.2363V53.7148C85.6387 54.3164 85.8711 54.8838 86.3359 55.417C86.8145 55.9502 87.4844 56.415 88.3457 56.8115C89.207 57.1943 90.2393 57.502 91.4424 57.7344C92.6455 57.9531 93.9785 58.0625 95.4414 58.0625C96.959 58.0625 98.3193 57.9463 99.5225 57.7139C100.726 57.4678 101.744 57.1465 102.578 56.75C103.426 56.3535 104.075 55.8955 104.526 55.376C104.978 54.8428 105.203 54.2891 105.203 53.7148V51.6641H110.617V55.2734C110.617 55.998 110.433 56.6885 110.063 57.3447C109.694 57.9873 109.175 58.582 108.505 59.1289C107.849 59.6758 107.056 60.168 106.126 60.6055C105.21 61.0293 104.185 61.3984 103.05 61.7129C101.929 62.0137 100.726 62.2461 99.4404 62.4102C98.1553 62.5742 96.8223 62.6562 95.4414 62.6562C94.0605 62.6562 92.7275 62.5742 91.4424 62.4102C90.1572 62.2461 88.9473 62.0137 87.8125 61.7129C86.6914 61.3984 85.666 61.0293 84.7363 60.6055C83.8203 60.168 83.0273 59.6758 82.3574 59.1289C81.7012 58.582 81.1885 57.9873 80.8193 57.3447C80.4502 56.6885 80.2656 55.998 80.2656 55.2734V37.6367C80.2656 36.9121 80.4502 36.2217 80.8193 35.5654C81.1885 34.9092 81.7012 34.3076 82.3574 33.7607C83.0273 33.2139 83.8203 32.7217 84.7363 32.2842C85.666 31.8467 86.6914 31.4775 87.8125 31.1768C88.9473 30.8623 90.1572 30.623 91.4424 30.459C92.7275 30.2949 94.0605 30.2129 95.4414 30.2129ZM130.387 30.2539C131.754 30.2539 133.08 30.3359 134.365 30.5C135.65 30.6641 136.854 30.9033 137.975 31.2178C139.096 31.5186 140.121 31.8877 141.051 32.3252C141.98 32.749 142.773 33.2344 143.43 33.7812C144.086 34.3281 144.599 34.9297 144.968 35.5859C145.337 36.2285 145.521 36.9121 145.521 37.6367V55.2324C145.521 55.957 145.337 56.6475 144.968 57.3037C144.599 57.9463 144.086 58.541 143.43 59.0879C142.773 59.6348 141.98 60.127 141.051 60.5645C140.121 60.9883 139.096 61.3574 137.975 61.6719C136.854 61.9727 135.65 62.2051 134.365 62.3691C133.08 62.5332 131.754 62.6152 130.387 62.6152C129.02 62.6152 127.693 62.5332 126.408 62.3691C125.137 62.2051 123.94 61.9727 122.819 61.6719C121.712 61.3574 120.693 60.9883 119.764 60.5645C118.834 60.127 118.034 59.6348 117.364 59.0879C116.708 58.541 116.195 57.9463 115.826 57.3037C115.471 56.6475 115.293 55.957 115.293 55.2324V37.6367C115.293 36.9121 115.471 36.2285 115.826 35.5859C116.195 34.9297 116.708 34.3281 117.364 33.7812C118.034 33.2344 118.834 32.749 119.764 32.3252C120.693 31.8877 121.712 31.5186 122.819 31.2178C123.94 30.9033 125.137 30.6641 126.408 30.5C127.693 30.3359 129.02 30.2539 130.387 30.2539ZM140.148 39.1953C140.148 38.6074 139.923 38.0537 139.472 37.5342C139.021 37.001 138.371 36.5361 137.523 36.1396C136.689 35.7295 135.671 35.4082 134.468 35.1758C133.265 34.9297 131.904 34.8066 130.387 34.8066C128.924 34.8066 127.598 34.9229 126.408 35.1553C125.219 35.374 124.193 35.6816 123.332 36.0781C122.484 36.4746 121.828 36.9395 121.363 37.4727C120.898 38.0059 120.666 38.5801 120.666 39.1953V53.6738C120.666 54.2754 120.898 54.8428 121.363 55.376C121.828 55.9092 122.484 56.374 123.332 56.7705C124.193 57.167 125.219 57.4814 126.408 57.7139C127.598 57.9463 128.924 58.0625 130.387 58.0625C131.904 58.0625 133.265 57.9463 134.468 57.7139C135.671 57.4678 136.689 57.1396 137.523 56.7295C138.371 56.3193 139.021 55.8545 139.472 55.335C139.923 54.8018 140.148 54.248 140.148 53.6738V39.1953ZM163.896 30.7461C166.002 30.7461 167.984 30.9307 169.844 31.2998C171.703 31.6689 173.33 32.1816 174.725 32.8379C176.119 33.4941 177.22 34.2871 178.026 35.2168C178.833 36.1328 179.236 37.1445 179.236 38.252V54.5762C179.236 55.6836 178.833 56.7021 178.026 57.6318C177.22 58.5479 176.119 59.334 174.725 59.9902C173.33 60.6465 171.703 61.1592 169.844 61.5283C167.984 61.8975 166.002 62.082 163.896 62.082C162.721 62.082 161.518 62.041 160.287 61.959C159.057 61.8633 157.86 61.7471 156.698 61.6104C155.55 61.46 154.47 61.2891 153.458 61.0977C152.446 60.9062 151.578 60.7012 150.854 60.4824V32.3457C151.578 32.127 152.446 31.9219 153.458 31.7305C154.47 31.5391 155.55 31.375 156.698 31.2383C157.86 31.0879 159.057 30.9717 160.287 30.8896C161.518 30.7939 162.721 30.7461 163.896 30.7461ZM163.979 35.3809C162.734 35.3809 161.654 35.4219 160.738 35.5039C159.822 35.5723 159.036 35.668 158.38 35.791C157.724 35.9004 157.177 36.0234 156.739 36.1602C156.315 36.2832 155.967 36.3926 155.693 36.4883V56.3398C155.967 56.4492 156.315 56.5654 156.739 56.6885C157.177 56.8115 157.724 56.9346 158.38 57.0576C159.036 57.167 159.822 57.2627 160.738 57.3447C161.654 57.4131 162.734 57.4473 163.979 57.4473C165.51 57.4473 166.884 57.3242 168.101 57.0781C169.331 56.832 170.363 56.5039 171.197 56.0938C172.045 55.6836 172.694 55.2119 173.146 54.6787C173.597 54.1318 173.822 53.5645 173.822 52.9766V39.8516C173.822 39.2637 173.597 38.7031 173.146 38.1699C172.694 37.623 172.045 37.1445 171.197 36.7344C170.363 36.3242 169.331 35.9961 168.101 35.75C166.884 35.5039 165.51 35.3809 163.979 35.3809ZM198.842 30.7871C200.947 30.7871 203.176 30.8623 205.527 31.0127C207.893 31.1631 210.354 31.457 212.91 31.8945V37.1035C211.762 36.7754 210.6 36.5088 209.424 36.3037C208.248 36.085 207.065 35.9141 205.876 35.791C204.7 35.668 203.524 35.5791 202.349 35.5244C201.173 35.4697 200.004 35.4355 198.842 35.4219C198.281 35.4219 197.659 35.4355 196.976 35.4629C196.306 35.4766 195.588 35.5039 194.822 35.5449C194.07 35.5859 193.277 35.6475 192.443 35.7295C191.609 35.8115 190.762 35.9141 189.9 36.0371V43.502H207.824V48.5469H189.9V56.791C191.227 56.9824 192.607 57.126 194.043 57.2217C195.479 57.3174 197.078 57.3652 198.842 57.3652C201.221 57.3652 203.586 57.249 205.938 57.0166C208.289 56.7842 210.613 56.3398 212.91 55.6836V60.8926C210.354 61.3301 207.899 61.624 205.548 61.7744C203.196 61.9248 200.988 62 198.924 62C196.818 62 194.583 61.9248 192.218 61.7744C189.866 61.624 187.398 61.3301 184.814 60.8926V31.8945C187.398 31.457 189.866 31.1631 192.218 31.0127C194.569 30.8623 196.777 30.7871 198.842 30.7871ZM229.891 30.6641C231.258 30.6641 232.652 30.7324 234.074 30.8691C235.51 30.9922 236.904 31.2178 238.258 31.5459C239.611 31.8604 240.883 32.3047 242.072 32.8789C243.262 33.4395 244.301 34.1572 245.189 35.0322C246.092 35.8936 246.803 36.9326 247.322 38.1494C247.842 39.3525 248.102 40.7676 248.102 42.3945C248.102 44.6367 247.698 46.5303 246.892 48.0752C246.085 49.6064 244.984 50.8438 243.59 51.7871C244.178 52.6895 244.684 53.6328 245.107 54.6172C245.531 55.6016 245.873 56.5586 246.133 57.4883C246.406 58.4043 246.604 59.2588 246.728 60.0518C246.851 60.8447 246.912 61.5078 246.912 62.041H241.662C241.662 61.207 241.594 60.4209 241.457 59.6826C241.32 58.9307 241.129 58.2197 240.883 57.5498C240.637 56.8662 240.35 56.2236 240.021 55.6221C239.707 55.0205 239.365 54.4395 238.996 53.8789C237.697 54.248 236.323 54.5146 234.874 54.6787C233.425 54.8291 231.914 54.9043 230.342 54.9043C229.398 54.9043 228.441 54.877 227.471 54.8223C226.5 54.7676 225.543 54.6992 224.6 54.6172V61.959H219.514V31.8535C219.814 31.7578 220.293 31.6416 220.949 31.5049C221.619 31.3682 222.405 31.2383 223.308 31.1152C224.224 30.9922 225.242 30.8896 226.363 30.8076C227.484 30.7119 228.66 30.6641 229.891 30.6641ZM231.367 35.1758C230.465 35.1758 229.604 35.2168 228.783 35.2988C227.963 35.3672 227.245 35.4492 226.63 35.5449C225.892 35.6543 225.215 35.7773 224.6 35.9141V49.9414C225.037 50.0371 225.522 50.1191 226.056 50.1875C226.507 50.2559 227.033 50.3174 227.635 50.3721C228.236 50.4131 228.879 50.4336 229.562 50.4336C230.451 50.4336 231.388 50.4131 232.372 50.3721C233.37 50.3174 234.354 50.2012 235.325 50.0234C236.31 49.8457 237.239 49.5859 238.114 49.2441C239.003 48.8887 239.782 48.4238 240.452 47.8496C241.136 47.2617 241.676 46.5371 242.072 45.6758C242.482 44.8145 242.688 43.7754 242.688 42.5586C242.688 41.5469 242.523 40.6582 242.195 39.8926C241.867 39.127 241.423 38.4707 240.862 37.9238C240.302 37.377 239.646 36.9258 238.894 36.5703C238.155 36.2148 237.362 35.9346 236.515 35.7295C235.681 35.5244 234.819 35.3809 233.931 35.2988C233.056 35.2168 232.201 35.1758 231.367 35.1758ZM266.805 30.7461C268.664 30.7461 270.462 30.8623 272.198 31.0947C273.948 31.3135 275.514 31.6963 276.895 32.2432C278.289 32.7764 279.431 33.501 280.319 34.417C281.222 35.333 281.748 36.4746 281.898 37.8418L276.566 39.3184C276.566 38.498 276.286 37.8281 275.726 37.3086C275.179 36.7754 274.447 36.3584 273.531 36.0576C272.629 35.7432 271.59 35.5244 270.414 35.4014C269.252 35.2783 268.049 35.2168 266.805 35.2168C265.588 35.2168 264.392 35.2715 263.216 35.3809C262.04 35.4902 260.98 35.6953 260.037 35.9961C259.107 36.2969 258.355 36.7139 257.781 37.2471C257.207 37.7803 256.92 38.4707 256.92 39.3184V44.1992H281.898V54.8223C281.898 55.7383 281.693 56.5586 281.283 57.2832C280.887 57.9941 280.333 58.6162 279.622 59.1494C278.925 59.6689 278.091 60.1133 277.12 60.4824C276.163 60.8379 275.124 61.125 274.003 61.3438C272.896 61.5625 271.727 61.7197 270.496 61.8154C269.266 61.9111 268.035 61.959 266.805 61.959C265.547 61.959 264.31 61.9111 263.093 61.8154C261.876 61.7197 260.721 61.5625 259.627 61.3438C258.533 61.125 257.515 60.8379 256.571 60.4824C255.642 60.1133 254.821 59.6689 254.11 59.1494C253.399 58.6162 252.825 57.9941 252.388 57.2832C251.95 56.5723 251.684 55.752 251.588 54.8223L256.92 53.3457C256.92 54.1934 257.207 54.8838 257.781 55.417C258.355 55.9502 259.107 56.3672 260.037 56.668C260.98 56.9688 262.04 57.1738 263.216 57.2832C264.392 57.3926 265.588 57.4473 266.805 57.4473C268.049 57.4473 269.252 57.3926 270.414 57.2832C271.59 57.1602 272.629 56.9482 273.531 56.6475C274.447 56.333 275.179 55.9092 275.726 55.376C276.286 54.8428 276.566 54.166 276.566 53.3457V48.3418H251.588V37.8418C251.588 36.9258 251.786 36.1191 252.183 35.4219C252.593 34.7109 253.146 34.0957 253.844 33.5762C254.555 33.043 255.396 32.5986 256.366 32.2432C257.337 31.874 258.383 31.5801 259.504 31.3613C260.639 31.1426 261.821 30.9854 263.052 30.8896C264.296 30.7939 265.547 30.7461 266.805 30.7461Z" fill="#63DC3E"/>
</g>
<defs>
<filter id="filter0_d" x="11.1016" y="28.2129" width="272.797" height="40.4434" filterUnits="userSpaceOnUse" color-interpolation-filters="sRGB">
<feFlood flood-opacity="0" result="BackgroundImageFix"/>
<feColorMatrix in="SourceAlpha" type="matrix" values="0 0 0 0 0 0 0 0 0 0 0 0 0 0 0 0 0 0 127 0"/>
<feOffset dx="-2" dy="2"/>
<feGaussianBlur stdDeviation="2"/>
<feColorMatrix type="matrix" values="0 0 0 0 0.45098 0 0 0 0 0.101961 0 0 0 0 0.717647 0 0 0 1 0"/>
<feBlend mode="normal" in2="BackgroundImageFix" result="effect1_dropShadow"/>
<feBlend mode="normal" in="SourceGraphic" in2="effect1_dropShadow" result="shape"/>
</filter>
</defs>
</svg>
